<?xml version="1.0" standalone="no"?>
<!DOCTYPE svg PUBLIC "-//W3C//DTD SVG 20010904//EN"
 "http://www.w3.org/TR/2001/REC-SVG-20010904/DTD/svg10.dtd">
<svg version="1.0" xmlns="http://www.w3.org/2000/svg"
 width="1629.000000pt" height="1629.000000pt" viewBox="0 0 1629.000000 1629.000000"
 preserveAspectRatio="xMidYMid meet">
<metadata>
Created by potrace 1.11, written by Peter Selinger 2001-2013
</metadata>
<g transform="translate(0.000000,1629.000000) scale(0.100000,-0.100000)"
fill="#000000" stroke="none">
<path d="M7645 16270 c-609 -42 -1196 -142 -1750 -301 -2484 -712 -4496 -2584
-5389 -5012 -239 -650 -391 -1315 -460 -2014 -54 -543 -46 -1226 19 -1773 425
-3528 3110 -6384 6608 -7025 493 -90 926 -128 1462 -129 697 0 1315 73 1965
234 3218 796 5645 3489 6099 6770 56 399 75 692 75 1130 0 450 -21 749 -80
1160 -208 1456 -803 2814 -1735 3966 -324 400 -759 837 -1164 1168 -908 745
-1981 1289 -3125 1584 -421 109 -908 190 -1395 233 -165 14 -958 20 -1130 9z
m1158 -1837 c4 -181 10 -543 14 -806 l6 -478 -159 3 -158 3 -286 336 c-157
184 -336 396 -399 470 l-113 134 7 -483 8 -482 -186 0 -185 0 -6 143 c-3 78
-8 340 -11 582 -3 242 -8 540 -11 663 l-7 222 160 0 161 0 397 -470 c219 -259
399 -469 401 -467 2 1 -1 214 -6 472 -4 259 -6 473 -3 478 2 4 86 7 187 7
l183 0 6 -327z m-1967 64 c23 -78 41 -143 40 -144 0 -1 -181 -54 -401 -118
-220 -65 -401 -118 -402 -119 -1 -1 19 -72 44 -159 29 -98 51 -157 59 -157 8
0 167 45 355 100 188 55 344 99 346 96 7 -7 85 -277 81 -280 -1 -2 -160 -50
-353 -106 -192 -56 -351 -103 -352 -104 -2 -2 96 -338 99 -342 2 -1 185 52
407 117 222 65 410 119 417 119 8 0 22 -29 33 -67 11 -38 29 -101 41 -141 12
-41 19 -76 16 -79 -6 -7 -1188 -355 -1191 -351 -4 5 -454 1542 -452 1543 12 8
1163 341 1167 338 2 -2 23 -68 46 -146z m3471 -48 c76 -34 139 -62 139 -63 1
-1 33 -256 70 -568 38 -313 72 -568 77 -568 7 0 443 304 893 622 l40 29 140
-62 c76 -34 140 -63 142 -64 3 -2 -645 -1465 -652 -1472 0 0 -73 31 -161 71
-108 49 -159 77 -157 87 2 8 85 196 184 419 99 223 183 411 185 418 4 10 -295
-196 -672 -463 l-61 -43 -77 36 c-54 24 -79 41 -82 56 -2 12 -27 208 -56 436
-28 228 -52 416 -52 417 -1 1 -85 -184 -186 -410 -101 -227 -187 -415 -191
-420 -3 -4 -79 25 -168 65 l-161 72 13 30 c24 57 637 1420 642 1428 7 11 1 14
151 -53z m-5172 -554 c109 -23 170 -58 260 -149 125 -125 180 -257 178 -421
-2 -134 -57 -263 -164 -380 -67 -73 -138 -125 -329 -240 -88 -53 -158 -100
-156 -104 2 -3 54 -88 115 -188 l110 -182 -160 -97 c-135 -81 -163 -94 -174
-83 -17 19 -828 1360 -823 1363 2 2 156 95 343 208 245 147 366 214 429 237
144 52 248 62 371 36z m7273 -606 c78 -61 142 -113 142 -117 0 -7 -950 -1235
-974 -1259 -8 -8 -45 16 -151 99 -77 60 -144 113 -148 117 -8 8 967 1271 981
1271 4 0 71 -50 150 -111z m-8601 -524 c143 -33 281 -112 397 -228 90 -91 155
-195 198 -317 32 -92 33 -100 33 -250 0 -173 -12 -231 -70 -357 -48 -105 -99
-177 -195 -276 -182 -190 -396 -287 -631 -287 -220 0 -398 74 -568 235 -170
161 -254 354 -253 585 0 241 93 453 281 641 156 157 339 249 541 273 56 6 200
-4 267 -19z m9247 -200 c167 -48 286 -123 417 -263 143 -152 224 -316 249
-501 10 -71 6 -191 -6 -212 -1 -3 -72 3 -156 12 -84 10 -156 18 -160 18 -5 1
-8 35 -8 76 0 142 -43 259 -132 359 -199 224 -511 235 -727 27 -110 -106 -162
-222 -162 -361 0 -140 60 -271 173 -376 84 -80 176 -120 296 -132 l67 -7 -4
-160 c-1 -88 -5 -164 -8 -169 -3 -4 -38 -5 -77 -2 -207 20 -375 106 -537 272
-338 349 -362 844 -55 1171 228 244 531 335 830 248z m-6702 -1319 c404 -103
713 -441 778 -848 18 -113 8 -341 -20 -443 -89 -328 -338 -602 -650 -716 -141
-51 -210 -63 -375 -62 -127 0 -164 4 -246 26 -301 79 -535 262 -678 528 -159
295 -163 668 -11 969 153 303 447 516 786 570 103 16 307 4 416 -24z m2984
-227 c503 -70 901 -471 964 -971 5 -46 10 -286 10 -540 l0 -458 29 0 c60 0
229 -51 326 -100 283 -140 482 -402 540 -713 14 -74 15 -190 13 -913 l-3 -829
-23 -80 c-48 -166 -130 -311 -246 -433 -126 -133 -274 -224 -453 -279 -82 -25
-100 -27 -273 -27 -172 0 -191 2 -271 27 -121 37 -189 69 -284 132 -204 136
-356 349 -421 590 -18 66 -19 120 -19 940 l0 870 23 80 c29 99 86 223 142 306
54 81 176 202 259 258 123 84 292 150 426 166 l56 7 -3 507 c-4 487 -5 509
-26 586 -93 334 -336 578 -673 676 -111 32 -305 37 -429 11 -374 -77 -647
-353 -742 -747 -9 -38 -13 -646 -17 -2490 l-6 -2440 -22 -77 c-117 -410 -408
-706 -803 -814 -127 -34 -342 -44 -477 -20 -487 85 -862 479 -922 971 -6 50
-11 222 -11 383 l0 292 -117 0 c-98 0 -124 3 -159 21 -50 24 -100 77 -121 128
-12 27 -36 392 -103 1541 -48 828 -86 1506 -85 1508 1 1 54 -23 118 -53 172
-83 309 -116 512 -122 241 -8 433 33 632 133 48 24 88 42 89 41 3 -3 -162
-2888 -170 -2970 -7 -70 -33 -124 -82 -167 -59 -51 -90 -60 -219 -60 l-115 0
0 -309 c0 -226 4 -331 15 -392 103 -590 714 -936 1271 -720 245 95 440 291
536 538 67 173 62 -44 68 2648 l5 2440 24 84 c73 262 213 471 419 625 235 177
532 255 818 215z m-3318 -8129 c348 -151 632 -279 632 -284 0 -8 -109 -266
-117 -275 -2 -3 -74 26 -161 64 -86 37 -191 82 -233 100 l-77 33 -257 -591
c-142 -326 -259 -593 -260 -595 -5 -6 -338 143 -341 153 -2 5 111 273 251 594
140 321 252 587 250 591 -2 3 -105 50 -229 104 -124 55 -226 103 -226 108 0
23 116 278 126 276 6 -2 295 -127 642 -278z m5066 -531 c158 -402 290 -738
293 -748 4 -14 -25 -29 -168 -85 -95 -37 -175 -63 -179 -59 -4 4 -58 136 -120
293 -61 157 -116 289 -120 294 -10 10 -660 -244 -660 -259 0 -5 52 -140 115
-299 63 -160 115 -293 115 -297 0 -13 -340 -143 -349 -133 -17 17 -591 1478
-583 1486 8 8 344 140 347 136 1 -2 51 -128 111 -281 60 -153 112 -283 116
-289 4 -8 113 30 333 117 179 71 328 131 329 134 2 3 -48 136 -111 295 -62
159 -112 290 -111 291 9 6 335 134 343 135 6 0 140 -329 299 -731z m-3811 162
c318 -55 581 -102 584 -104 6 -6 -42 -285 -50 -293 -3 -4 -189 25 -414 64
-224 38 -409 69 -410 68 -5 -4 -56 -326 -52 -329 2 -2 146 -27 319 -56 173
-29 336 -57 361 -63 l46 -9 -24 -142 c-13 -78 -26 -143 -28 -145 -2 -3 -167
23 -365 58 -199 34 -363 60 -365 58 -10 -12 -57 -340 -49 -347 5 -4 193 -39
417 -77 225 -38 413 -72 418 -75 10 -6 -31 -283 -43 -295 -6 -6 -1202 196
-1218 206 -7 4 221 1393 256 1553 3 16 12 27 22 27 9 0 277 -45 595 -99z
m1802 -36 c92 -25 235 -100 295 -154 l55 -48 -27 -34 c-15 -19 -64 -74 -110
-124 l-84 -89 -45 37 c-25 20 -75 50 -112 68 -215 100 -488 35 -627 -150 -117
-155 -127 -403 -24 -579 87 -148 237 -233 414 -234 162 -2 285 48 390 158 l63
65 114 -88 c63 -48 121 -93 129 -99 8 -6 14 -14 14 -17 0 -3 -22 -33 -49 -65
-94 -113 -251 -209 -416 -254 -67 -18 -108 -21 -255 -22 -154 -1 -185 2 -255
22 -358 103 -584 389 -602 762 -9 193 30 340 132 495 129 195 346 328 600 368
68 11 341 -1 400 -18z"/>
<path d="M4884 13560 c-53 -11 -135 -52 -283 -142 -64 -40 -118 -73 -120 -74
-3 -3 263 -450 275 -463 8 -9 302 176 348 218 93 87 120 195 72 297 -60 129
-168 190 -292 164z"/>
<path d="M3490 12419 c-187 -32 -354 -191 -405 -386 -42 -160 12 -331 145
-463 215 -213 513 -213 714 1 124 131 170 290 131 444 -23 90 -61 159 -123
227 -128 138 -301 205 -462 177z"/>
<path d="M10140 8785 c0 -212 -2 -255 -14 -255 -23 0 -74 -66 -86 -111 -7 -26
-10 -116 -8 -243 3 -192 4 -203 27 -244 14 -23 35 -49 48 -57 22 -15 23 -21
23 -139 0 -120 1 -124 26 -150 37 -37 86 -35 125 3 29 29 29 30 29 151 l0 121
31 27 c55 45 59 69 59 312 0 201 -2 224 -20 260 -11 21 -33 47 -50 57 l-30 17
0 253 0 253 -80 0 -80 0 0 -255z m146 -399 l34 -34 0 -146 c0 -159 -7 -189
-51 -212 -45 -23 -87 -18 -120 15 l-29 29 0 159 c0 135 3 161 18 179 44 55
100 58 148 10z"/>
<path d="M6012 8239 c-51 -25 -78 -61 -91 -120 -15 -61 -14 -693 0 -744 16
-57 46 -95 93 -116 104 -47 217 5 246 113 7 24 10 170 8 402 l-3 363 -28 42
c-50 76 -143 100 -225 60z"/>
</g>
</svg>
